<?xml version="1.0" standalone="no"?>
<!DOCTYPE svg PUBLIC "-//W3C//DTD SVG 20010904//EN"
 "http://www.w3.org/TR/2001/REC-SVG-20010904/DTD/svg10.dtd">
<svg version="1.0" xmlns="http://www.w3.org/2000/svg"
 width="500.000000pt" height="500.000000pt" viewBox="0 0 500.000000 500.000000"
 preserveAspectRatio="xMidYMid meet">

<g transform="translate(0.000000,500.000000) scale(0.100000,-0.100000)"
fill="#000000" stroke="none">
<path d="M2525 4796 c-102 -32 -188 -89 -296 -193 -59 -57 -76 -68 -155 -94
-49 -17 -131 -52 -183 -80 -52 -27 -95 -48 -96 -47 -1 2 -16 23 -32 48 -80
117 -184 180 -310 188 -96 6 -183 -12 -265 -55 -83 -43 -140 -104 -181 -191
-28 -60 -31 -77 -32 -162 0 -103 17 -169 63 -250 20 -35 25 -57 23 -101 -1
-30 5 -75 13 -100 15 -43 15 -45 -16 -111 -23 -51 -29 -75 -24 -100 11 -52 10
-58 -23 -148 -84 -235 -79 -483 15 -688 83 -182 256 -352 492 -483 34 -18 42
-28 39 -44 -3 -11 -33 -90 -67 -175 -34 -85 -99 -267 -144 -403 l-83 -249 -39
-18 c-21 -10 -54 -29 -73 -44 -30 -23 -40 -25 -92 -19 -47 5 -65 2 -102 -16
-25 -12 -53 -33 -62 -47 -8 -13 -34 -32 -56 -40 -51 -21 -104 -83 -118 -139
-16 -63 -14 -174 5 -258 48 -217 183 -358 401 -419 77 -22 87 -22 1098 -28
1050 -6 1067 -7 1119 -46 14 -10 17 -17 10 -24 -26 -26 -152 -33 -564 -31
-625 1 -800 -16 -800 -79 0 -49 107 -66 519 -81 319 -12 1028 1 1216 21 258
29 337 111 220 230 l-45 45 49 18 c118 42 223 140 280 261 55 116 76 286 50
391 -14 56 -67 118 -118 139 -22 8 -45 24 -50 35 -6 10 -26 29 -45 41 l-35 21
17 37 c22 50 21 184 -2 235 -23 51 -81 114 -130 140 -30 15 -60 21 -112 21
l-70 1 23 52 c48 105 51 236 7 341 -13 32 -11 41 37 191 32 98 64 176 87 211
20 30 50 93 66 140 30 83 31 89 30 260 0 193 -14 281 -78 490 -26 87 -30 112
-21 120 28 23 26 61 -6 131 -29 63 -31 73 -21 108 7 21 13 58 14 82 1 28 9 55
23 74 96 129 123 335 63 468 -54 116 -175 210 -306 238 -85 17 -208 7 -275
-24 -67 -30 -134 -91 -177 -158 -18 -27 -34 -49 -36 -49 -1 0 -30 16 -63 35
-32 19 -94 49 -138 65 -43 17 -86 34 -95 38 -16 6 -14 12 12 51 79 117 -20
194 -173 135 -14 -5 -16 -1 -11 23 4 20 -1 36 -16 56 -18 23 -29 27 -68 26
-26 0 -65 -6 -87 -13z m115 -60 c0 -7 -19 -42 -41 -76 -37 -55 -40 -63 -26
-77 13 -13 22 -11 83 26 76 46 135 65 170 57 33 -9 30 -32 -11 -90 -38 -54
-46 -104 -20 -126 13 -10 20 -11 39 -1 48 26 276 -90 431 -218 175 -146 380
-466 469 -732 46 -137 66 -254 73 -420 5 -113 3 -145 -12 -190 -24 -72 -57
-137 -92 -177 l-28 -33 -164 51 c-90 29 -179 58 -197 66 -69 29 -151 8 -188
-48 -8 -13 -66 -179 -128 -369 l-114 -347 -75 -60 c-42 -32 -102 -89 -134
-126 l-58 -66 -46 45 c-93 92 -180 134 -426 205 -261 76 -505 168 -505 190 0
10 27 74 34 81 4 3 50 -9 104 -27 105 -36 202 -53 202 -36 0 5 -39 26 -87 47
-261 112 -417 208 -555 345 -79 77 -103 109 -133 171 -52 111 -61 173 -47 332
27 306 108 526 298 814 156 235 350 397 594 493 50 20 55 20 66 5 19 -26 37
-16 93 53 90 108 232 212 331 243 44 13 100 10 100 -5z m-1064 -209 c51 -26
124 -98 156 -154 l17 -29 -55 -42 c-30 -23 -54 -37 -54 -32 0 18 -73 91 -111
111 -51 26 -168 26 -225 0 -97 -44 -151 -142 -140 -254 6 -61 5 -63 -33 -106
l-39 -44 -16 31 c-44 85 -57 211 -31 298 33 112 108 188 228 232 89 32 229 28
303 -11z m2145 1 c95 -43 173 -128 200 -220 25 -83 5 -228 -43 -323 -19 -36
-22 -38 -32 -21 -6 11 -23 33 -38 51 -24 28 -26 36 -18 66 49 171 -64 319
-244 319 -105 -1 -153 -27 -216 -117 -15 -22 -15 -22 -65 22 l-49 43 38 57
c48 69 96 109 161 135 73 29 227 23 306 -12z m-2203 -207 c12 -6 22 -21 22
-33 0 -12 3 -18 6 -15 7 7 44 -35 44 -49 0 -13 -53 -64 -66 -64 -7 0 -16 -5
-20 -12 -5 -7 -3 -8 7 -3 11 7 -18 -38 -49 -75 -2 -3 -9 2 -15 10 -13 16 -17
18 -89 33 -32 6 -61 6 -87 -1 -32 -8 -41 -7 -45 5 -16 42 5 125 42 166 53 59
177 78 250 38z m2107 8 c71 -22 115 -88 115 -171 0 -31 -4 -59 -8 -62 -5 -3
-26 1 -48 9 -48 17 -104 19 -141 3 -15 -6 -34 -10 -42 -9 -8 1 -10 -3 -6 -11
3 -7 -3 -2 -15 11 -11 13 -19 30 -16 37 3 7 0 16 -6 20 -7 4 -8 3 -4 -4 10
-17 -9 -15 -24 3 -7 9 -9 22 -5 32 13 28 14 44 4 37 -5 -3 -7 -9 -4 -14 3 -4
-3 -14 -13 -21 -9 -7 -14 -10 -10 -5 4 5 -2 16 -14 25 -19 16 -19 18 -4 33 9
9 16 21 16 25 0 5 12 21 28 36 44 42 115 52 197 26z m-2250 -285 c18 -8 36
-22 39 -29 3 -8 -21 -56 -54 -108 -32 -51 -71 -119 -86 -150 -24 -48 -32 -57
-54 -57 -51 0 -100 72 -100 148 0 50 43 136 84 166 61 46 118 56 171 30z
m2288 5 c49 -13 105 -63 128 -114 23 -49 24 -136 4 -175 -14 -27 -51 -60 -66
-60 -4 0 -26 35 -49 78 -24 42 -67 114 -96 160 -30 45 -54 85 -54 88 0 7 62
33 80 34 8 0 32 -5 53 -11z m-2490 -423 c-34 -58 -55 -86 -63 -86 -22 0 -22
33 0 80 22 48 23 48 46 33 13 -8 21 -20 17 -27z m2655 -11 c40 -83 -2 -104
-47 -22 -22 41 -24 49 -11 57 26 17 35 11 58 -35z m-2667 -138 c-21 -56 -51
-223 -62 -348 -10 -118 -9 -147 5 -215 29 -143 98 -249 248 -382 68 -59 229
-174 259 -184 10 -3 10 -14 -5 -51 -10 -26 -23 -47 -28 -47 -36 0 -240 141
-332 229 -177 171 -249 337 -250 576 0 133 10 196 56 333 26 77 35 92 52 92
12 0 28 5 36 10 24 16 30 12 21 -13z m2708 -105 c73 -251 98 -479 67 -632 -10
-47 -29 -111 -43 -143 l-26 -58 -21 38 c-13 23 -37 46 -62 59 l-42 21 39 58
c57 86 80 163 86 280 6 110 -14 292 -45 413 -17 66 -17 72 -2 72 13 0 25 -27
49 -108z m-371 -698 c131 -42 249 -83 263 -90 14 -7 32 -26 38 -43 11 -26 7
-46 -39 -191 -51 -161 -51 -162 -73 -146 -106 77 -193 82 -269 18 -17 -15 -50
-36 -72 -48 -26 -13 -52 -38 -70 -68 -28 -45 -31 -57 -39 -193 -8 -128 -7
-151 8 -184 21 -45 55 -79 110 -108 51 -28 40 -25 -252 70 l-242 79 19 58 c10
31 80 245 155 474 142 437 147 448 203 448 13 0 130 -34 260 -76z m97 -483
c50 -22 108 -86 126 -137 8 -22 14 -77 14 -124 0 -76 -4 -93 -32 -150 -19 -38
-55 -88 -87 -120 -55 -54 -56 -54 -83 -39 -16 9 -57 24 -93 35 -47 13 -76 30
-108 60 l-43 42 7 138 c4 77 11 148 17 159 17 36 59 74 88 80 15 3 30 13 33
21 8 21 67 54 96 54 14 0 43 -9 65 -19z m-1888 -55 c93 -41 266 -100 458 -156
167 -48 303 -113 364 -172 l45 -43 -3 -108 c-2 -91 0 -111 14 -121 13 -9 15
-26 13 -80 l-3 -68 -42 60 c-23 33 -79 93 -125 134 -161 144 -223 207 -253
257 -35 59 -47 64 -38 19 15 -83 55 -138 196 -272 151 -143 226 -241 253 -332
19 -67 7 -100 -48 -127 -35 -17 -38 -22 -38 -62 0 -60 -15 -89 -56 -109 -41
-19 -63 -20 -115 -5 -33 10 -45 9 -88 -10 -27 -11 -61 -21 -76 -21 -32 0 -86
49 -199 179 -191 221 -273 357 -324 541 -9 33 -10 32 -11 -25 -2 -117 52 -257
148 -390 78 -106 287 -331 325 -349 44 -21 101 -20 151 3 26 11 48 15 60 10
11 -4 40 -8 65 -8 91 -2 173 65 186 151 4 20 13 43 20 49 12 9 14 2 14 -43 0
-122 -46 -224 -139 -310 -46 -43 -82 -64 -185 -107 -200 -85 -276 -141 -276
-204 l0 -29 -397 4 c-430 5 -449 7 -569 64 -161 76 -266 262 -266 475 -1 52 5
87 17 112 20 43 59 77 87 77 11 0 42 23 68 51 47 50 49 51 96 47 27 -3 63 -11
81 -18 26 -12 38 -12 72 0 116 38 204 -41 267 -239 15 -47 31 -90 36 -96 16
-19 8 124 -12 187 -38 124 -115 203 -211 215 l-42 6 29 15 c44 23 151 27 216
8 78 -22 166 -90 215 -166 50 -76 66 -63 25 23 -58 124 -176 206 -309 215
l-71 5 15 51 c56 197 259 746 275 746 4 0 42 -15 85 -34z m1116 -293 c-43
-134 -40 -168 15 -223 30 -29 59 -43 150 -70 109 -34 112 -36 106 -60 -51
-204 -67 -419 -40 -559 21 -112 69 -212 139 -287 68 -74 140 -114 267 -148
119 -33 270 -88 270 -98 0 -4 -373 -8 -829 -8 -731 0 -831 2 -845 15 -22 22
-11 40 50 80 50 33 91 54 267 133 40 19 90 53 123 84 101 95 133 171 146 348
11 145 11 150 2 333 -6 132 -5 140 15 158 18 17 21 31 21 97 0 54 -5 84 -16
100 -15 21 -12 25 86 123 56 56 103 99 105 97 2 -2 -12 -54 -32 -115z m653
-326 c12 -12 -28 -36 -60 -37 -16 0 -139 36 -275 80 -252 82 -291 102 -291
149 0 16 41 5 309 -83 170 -55 313 -104 317 -109z m410 114 c107 -49 155 -198
99 -314 -21 -44 -40 -47 -90 -12 -43 29 -136 65 -168 65 -20 0 -26 12 -54 103
-28 95 -29 103 -14 121 48 54 151 71 227 37z m-272 -165 c14 -46 26 -86 26
-89 0 -3 -15 -8 -34 -11 -102 -19 -215 -109 -262 -209 -41 -89 -29 -118 19
-43 38 60 114 129 178 162 41 20 73 28 130 32 68 4 84 1 134 -22 57 -26 73
-46 21 -26 -68 25 -155 4 -214 -53 -64 -61 -112 -189 -112 -296 0 -67 11 -58
34 29 54 200 153 296 269 260 49 -16 72 -14 104 7 16 11 38 14 71 10 40 -4 53
-11 88 -51 23 -27 49 -46 61 -46 29 0 68 -33 88 -77 37 -78 15 -264 -47 -386
-56 -112 -162 -200 -281 -232 l-64 -17 -49 25 c-66 33 -176 72 -277 98 -121
30 -203 73 -270 140 -128 128 -173 340 -132 614 13 82 43 215 49 215 1 0 56
-18 121 -40 65 -22 132 -40 148 -40 40 0 95 28 113 56 8 13 21 35 29 49 9 14
19 25 24 25 5 0 20 -38 35 -84z m272 -1148 c56 -43 83 -90 64 -113 -64 -77
-362 -100 -1195 -92 -471 4 -623 12 -690 34 -74 24 279 43 665 36 310 -6 567
7 626 32 61 25 69 52 28 90 l-27 25 184 1 c101 0 204 4 229 8 70 13 71 13 116
-21z"/>
<path d="M1894 3251 c-92 -42 -176 -201 -106 -201 10 0 38 20 62 45 75 77 126
90 227 58 50 -16 55 -16 70 0 16 16 15 19 -12 48 -62 66 -161 86 -241 50z"/>
<path d="M2910 3249 c-55 -25 -90 -56 -90 -81 0 -28 22 -31 81 -14 102 31 163
12 232 -70 16 -19 37 -34 48 -34 71 0 0 148 -93 194 -63 31 -117 33 -178 5z"/>
<path d="M2380 2982 c-41 -12 -38 -53 5 -91 20 -17 42 -31 50 -31 8 0 15 -5
15 -11 0 -17 -57 -69 -75 -69 -23 0 -56 19 -76 44 -21 26 -34 16 -25 -19 15
-58 127 -86 179 -45 l26 20 33 -20 c66 -40 164 -13 181 50 8 31 -12 34 -38 6
-44 -47 -105 -41 -135 13 -8 17 -3 23 36 46 56 33 75 68 50 93 -13 13 -37 17
-109 19 -51 1 -103 -1 -117 -5z m134 -18 c27 -10 7 -24 -34 -24 -60 0 -63 27
-3 29 12 1 28 -2 37 -5z"/>
<path d="M1469 4253 c-13 -16 -12 -17 4 -4 16 13 21 21 13 21 -2 0 -10 -8 -17
-17z"/>
<path d="M1499 4243 c-1 -5 -1 -11 0 -15 1 -9 -29 -6 -46 5 -9 5 -11 3 -7 -6
3 -9 18 -14 39 -14 24 1 31 4 25 13 -6 6 -7 14 -3 17 3 4 3 7 0 7 -4 0 -8 -3
-8 -7z"/>
<path d="M1470 4180 c-8 -5 -12 -12 -9 -15 4 -3 12 1 19 10 14 17 11 19 -10 5z"/>
<path d="M1405 4170 c3 -5 8 -10 11 -10 2 0 4 5 4 10 0 6 -5 10 -11 10 -5 0
-7 -4 -4 -10z"/>
<path d="M1475 4149 c-4 -6 -5 -12 -2 -15 2 -3 7 2 10 11 7 17 1 20 -8 4z"/>
<path d="M1410 4135 c13 -16 30 -11 30 8 0 7 -4 6 -10 -3 -6 -10 -10 -11 -10
-2 0 6 -5 12 -11 12 -8 0 -8 -5 1 -15z"/>
<path d="M1453 4095 c0 -8 4 -12 9 -9 5 3 6 10 3 15 -9 13 -12 11 -12 -6z"/>
<path d="M3425 4283 c3 -3 0 -11 -5 -18 -7 -8 -5 -12 4 -12 14 0 16 22 3 32
-4 3 -5 2 -2 -2z"/>
<path d="M3456 4259 c2 -4 13 -7 24 -6 23 2 17 10 -10 12 -10 1 -17 -2 -14 -6z"/>
<path d="M3390 4220 c0 -5 5 -10 11 -10 5 0 7 5 4 10 -3 6 -8 10 -11 10 -2 0
-4 -4 -4 -10z"/>
<path d="M3465 4220 c-3 -6 1 -7 9 -4 18 7 21 14 7 14 -6 0 -13 -4 -16 -10z"/>
<path d="M3227 2652 c-24 -26 -21 -77 5 -102 63 -58 152 27 102 98 -20 28 -83
31 -107 4z"/>
</g>
</svg>
